<?xml version="1.0" encoding="UTF-8" standalone="no"?>
<!-- Created with Inkscape (http://www.inkscape.org/) -->

<svg
   width="7in"
   height="1.0010002in"
   viewBox="0 0 177.8 25.425404"
   version="1.1"
   id="svg1"
   xml:space="preserve"
   xmlns="http://www.w3.org/2000/svg"
   xmlns:svg="http://www.w3.org/2000/svg"><defs
     id="defs1" /><g
     id="layer1"><path
       style="fill:#0000ff;fill-opacity:1;stroke:#0000ff;stroke-width:0.705556;stroke-dasharray:none;stroke-opacity:1"
       d="M 6.5801465,12.699992 H 171.21985"
       id="path1" /><circle
       style="fill:#f2f2f2;fill-opacity:1;stroke:none;stroke-width:0.895284;stroke-dasharray:none;stroke-opacity:1"
       id="path2"
       cx="12.304217"
       cy="12.817675"
       r="8.8823195" /><circle
       style="fill:#f2f2f2;fill-opacity:1;stroke:none;stroke-width:0.895284;stroke-dasharray:none;stroke-opacity:1"
       id="path2-8"
       cx="165.5238"
       cy="12.582314"
       r="8.8823195" /><circle
       style="fill:#f2f2f2;fill-opacity:1;stroke:none;stroke-width:0.895284;stroke-dasharray:none;stroke-opacity:1"
       id="circle2"
       cx="139.98721"
       cy="12.582314"
       r="8.8823195" /><circle
       style="fill:#f2f2f2;fill-opacity:1;stroke:none;stroke-width:0.895284;stroke-dasharray:none;stroke-opacity:1"
       id="circle3"
       cx="114.45061"
       cy="12.582314"
       r="8.8823195" /><circle
       style="fill:#f2f2f2;fill-opacity:1;stroke:none;stroke-width:0.895284;stroke-dasharray:none;stroke-opacity:1"
       id="circle4"
       cx="88.914009"
       cy="12.582314"
       r="8.8823195" /><circle
       style="fill:#f2f2f2;fill-opacity:1;stroke:none;stroke-width:0.895284;stroke-dasharray:none;stroke-opacity:1"
       id="circle5"
       cx="63.377411"
       cy="12.582314"
       r="8.8823195" /><circle
       style="fill:#f2f2f2;fill-opacity:1;stroke:none;stroke-width:0.895284;stroke-dasharray:none;stroke-opacity:1"
       id="circle6"
       cx="37.840816"
       cy="12.582314"
       r="8.8823195" /><g
       style="fill:#0000ff;fill-opacity:1"
       id="g6"
       transform="matrix(0.01547619,0,0,0.01309524,4.8805412,18.782136)"><path
         d="m 387,-412 35,-114 -92,-74 h 114 l 36,-112 36,112 h 114 l -93,74 35,114 -92,-71 z M 240,-40 v -309 q -38,-42 -59,-96 -21,-54 -21,-115 0,-134 93,-227 93,-93 227,-93 134,0 227,93 93,93 93,227 0,61 -21,115 -21,54 -59,96 v 309 l -240,-80 z m 410,-350 q 70,-70 70,-170 0,-100 -70,-170 -70,-70 -170,-70 -100,0 -170,70 -70,70 -70,170 0,100 70,170 70,70 170,70 100,0 170,-70 z m -330,231 160,-41 160,41 v -124 q -35,20 -75.5,31.5 Q 524,-240 480,-240 436,-240 395.5,-251.5 355,-263 320,-283 Z m 160,-62 z"
         id="path1-4"
         style="fill:#0000ff;fill-opacity:1" /></g><g
       style="fill:#0000ff;fill-opacity:1"
       id="g7"
       transform="matrix(0.01375661,0,0,0.01375661,30.790743,18.7529)"><path
         d="m 485,-240 z m 26,80 H 160 v -112 q 0,-34 17.5,-62.5 17.5,-28.5 46.5,-43.5 62,-31 126,-46.5 64,-15.5 130,-15.5 v 80 q -56,0 -111,13.5 -55,13.5 -109,40.5 -9,5 -14.5,14 -5.5,9 -5.5,20 v 32 h 245 q 4,21 10.5,41 6.5,20 15.5,39 z m 209,80 Q 647,-98 603.5,-160 560,-222 560,-298 v -102 l 160,-80 160,80 v 102 q 0,76 -43.5,138 Q 793,-98 720,-80 Z m 0,-84 q 38,-18 59,-55 21,-37 21,-79 v -52 l -80,-40 -80,40 v 52 q 0,42 21,79 21,37 59,55 z M 367,-527 q -47,-47 -47,-113 0,-66 47,-113 47,-47 113,-47 66,0 113,47 47,47 47,113 0,66 -47,113 -47,47 -113,47 -66,0 -113,-47 z m 169.5,-56.5 Q 560,-607 560,-640 560,-673 536.5,-696.5 513,-720 480,-720 q -33,0 -56.5,23.5 -23.5,23.5 -23.5,56.5 0,33 23.5,56.5 23.5,23.5 56.5,23.5 33,0 56.5,-23.5 z M 480,-640 Z m 240,363 z"
         id="path1-0"
         style="fill:#0000ff;fill-opacity:1" /></g><g
       style="fill:#0000ff;fill-opacity:1"
       id="g8"
       transform="matrix(0.01207898,0,0,0.01207898,57.544891,18.497903)"><path
         d="m 720,-430 80,80 v 190 q 0,33 -23.5,56.5 Q 753,-80 720,-80 H 160 q -33,0 -56.5,-23.5 Q 80,-127 80,-160 v -560 q 0,-33 23.5,-56.5 Q 127,-800 160,-800 h 220 q -8,18 -12,38.5 -4,20.5 -6,41.5 H 160 v 560 h 560 z m 52,-174 128,128 -56,56 -128,-128 q -21,12 -45,20 -24,8 -51,8 -75,0 -127.5,-52.5 Q 440,-625 440,-700 440,-775 492.5,-827.5 545,-880 620,-880 q 75,0 127.5,52.5 52.5,52.5 52.5,127.5 0,27 -8,51 -8,24 -20,45 z m -81,-25 q 29,-29 29,-71 0,-42 -29,-71 -29,-29 -71,-29 -42,0 -71,29 -29,29 -29,71 0,42 29,71 29,29 71,29 42,0 71,-29 z m -531,199 v 270 -560 280 -12 z"
         id="path1-6"
         style="fill:#0000ff;fill-opacity:1" /></g><g
       style="fill:#0000ff;fill-opacity:1"
       id="g9"
       transform="matrix(0.01031771,0,0,0.01666667,83.983545,20.699994)"><path
         d="m 0,-240 v -63 q 0,-43 44,-70 44,-27 116,-27 13,0 25,0.5 12,0.5 23,2.5 -14,21 -21,44 -7,23 -7,48 v 65 z m 240,0 v -65 q 0,-32 17.5,-58.5 17.5,-26.5 49.5,-46.5 32,-20 76.5,-30 44.5,-10 96.5,-10 53,0 97.5,10 44.5,10 76.5,30 32,20 49,46.5 17,26.5 17,58.5 v 65 z m 540,0 v -65 q 0,-26 -6.5,-49 -6.5,-23 -19.5,-43 11,-2 22.5,-2.5 11.5,-0.5 23.5,-0.5 72,0 116,26.5 44,26.5 44,70.5 v 63 z m -455,-80 h 311 q -10,-20 -55.5,-35 -45.5,-15 -100.5,-15 -55,0 -100.5,15 -45.5,15 -54.5,35 z M 160,-440 q -33,0 -56.5,-23.5 Q 80,-487 80,-520 q 0,-34 23.5,-57 23.5,-23 56.5,-23 34,0 57,23 23,23 23,57 0,33 -23,56.5 -23,23.5 -57,23.5 z m 640,0 q -33,0 -56.5,-23.5 Q 720,-487 720,-520 q 0,-34 23.5,-57 23.5,-23 56.5,-23 34,0 57,23 23,23 23,57 0,33 -23,56.5 -23,23.5 -57,23.5 z m -320,-40 q -50,0 -85,-35 -35,-35 -35,-85 0,-51 35,-85.5 35,-34.5 85,-34.5 51,0 85.5,34.5 34.5,34.5 34.5,85.5 0,50 -34.5,85 -34.5,35 -85.5,35 z m 0,-80 q 17,0 28.5,-11.5 Q 520,-583 520,-600 520,-617 508.5,-628.5 497,-640 480,-640 q -17,0 -28.5,11.5 -11.5,11.5 -11.5,28.5 0,17 11.5,28.5 11.5,11.5 28.5,11.5 z m 1,240 z m -1,-280 z"
         id="path1-9"
         style="fill:#0000ff;fill-opacity:1" /></g><g
       style="fill:#0000ff;fill-opacity:1"
       id="g10"
       transform="matrix(0.01095686,0,0,0.01095686,109.33338,17.959285)"><path
         d="m 363,-310 117,-71 117,71 -31,-133 104,-90 -137,-11 -53,-126 -53,126 -137,11 104,90 z M 480,-28 346,-160 H 160 V -346 L 28,-480 160,-614 v -186 h 186 l 134,-132 134,132 h 186 v 186 l 132,134 -132,134 v 186 H 614 Z m 0,-112 100,-100 H 720 V -380 L 820,-480 720,-580 V -720 H 580 L 480,-820 380,-720 H 240 v 140 l -100,100 100,100 v 140 h 140 z m 0,-340 z"
         id="path1-60"
         style="fill:#0000ff;fill-opacity:1" /></g><g
       style="fill:#0000ff;fill-opacity:1"
       id="g11"
       transform="matrix(0.01238125,0,0,0.01238125,134.11314,18.890617)"><path
         d="m 80,-120 v -80 h 360 v -447 q -26,-9 -45,-28 -19,-19 -28,-45 H 240 l 120,280 q 0,50 -41,85 -41,35 -99,35 -58,0 -99,-35 -41,-35 -41,-85 l 120,-280 h -80 v -80 h 247 q 12,-35 43,-57.5 31,-22.5 70,-22.5 39,0 70,22.5 31,22.5 43,57.5 h 247 v 80 h -80 l 120,280 q 0,50 -41,85 -41,35 -99,35 -58,0 -99,-35 -41,-35 -41,-85 L 720,-720 H 593 q -9,26 -28,45 -19,19 -45,28 v 447 h 360 v 80 z m 585,-320 h 150 l -75,-174 z m -520,0 h 150 l -75,-174 z m 335,-280 q 17,0 28.5,-11.5 Q 520,-743 520,-760 520,-777 508.5,-788.5 497,-800 480,-800 q -17,0 -28.5,11.5 -11.5,11.5 -11.5,28.5 0,17 11.5,28.5 11.5,11.5 28.5,11.5 z"
         id="path1-8"
         style="fill:#0000ff;fill-opacity:1" /></g><g
       style="fill:#0000ff;fill-opacity:1"
       id="g12"
       transform="matrix(0.01125568,0,0,0.01125568,160.23503,18.552946)"><path
         d="M 480,-600 340,-740 480,-880 620,-740 Z M 40,-160 v -160 q 0,-34 23.5,-57 23.5,-23 56.5,-23 h 131 q 20,0 38,10 18,10 29,27 29,39 71.5,61 42.5,22 90.5,22 49,0 91.5,-22 42.5,-22 70.5,-61 13,-17 30.5,-27 17.5,-10 36.5,-10 h 131 q 34,0 57,23 23,23 23,57 v 160 H 640 v -91 q -35,25 -75.5,38 -40.5,13 -84.5,13 -43,0 -84,-13.5 -41,-13.5 -76,-38.5 v 92 z m 120,-280 q -50,0 -85,-35 -35,-35 -35,-85 0,-51 35,-85.5 35,-34.5 85,-34.5 51,0 85.5,34.5 34.5,34.5 34.5,85.5 0,50 -34.5,85 -34.5,35 -85.5,35 z m 640,0 q -50,0 -85,-35 -35,-35 -35,-85 0,-51 35,-85.5 35,-34.5 85,-34.5 51,0 85.5,34.5 34.5,34.5 34.5,85.5 0,50 -34.5,85 -34.5,35 -85.5,35 z"
         id="path1-3"
         style="fill:#0000ff;fill-opacity:1" /></g></g></svg>
