<?xml version="1.0" encoding="UTF-8" standalone="no"?>
<!-- Created with Inkscape (http://www.inkscape.org/) -->

<svg
   width="460mm"
   height="100mm"
   viewBox="0 0 460 100"
   version="1.1"
   id="svg1"
   xml:space="preserve"
   xmlns="http://www.w3.org/2000/svg"
   xmlns:svg="http://www.w3.org/2000/svg"><defs
     id="defs1"><marker
       style="overflow:visible"
       id="Triangle"
       refX="0"
       refY="0"
       orient="auto-start-reverse"
       markerWidth="2"
       markerHeight="2"
       viewBox="0 0 1 1"
       preserveAspectRatio="xMidYMid"><path
         transform="scale(0.5)"
         style="fill:context-stroke;fill-rule:evenodd;stroke:context-stroke;stroke-width:1pt"
         d="M 5.77,0 -2.88,5 V -5 Z"
         id="path135" /></marker><marker
       style="overflow:visible"
       id="Triangle-9"
       refX="0"
       refY="0"
       orient="auto-start-reverse"
       markerWidth="2"
       markerHeight="2"
       viewBox="0 0 1 1"
       preserveAspectRatio="xMidYMid"><path
         transform="scale(0.5)"
         style="fill:context-stroke;fill-rule:evenodd;stroke:context-stroke;stroke-width:1pt"
         d="M 5.77,0 -2.88,5 V -5 Z"
         id="path135-5" /></marker></defs><g
     id="layer1"><g
       style="fill:#0000ff"
       id="g1"
       transform="matrix(0.075,0,0,0.07317073,12.995835,82.970325)"><path
         d="m 324,-240 80,-386 -101,43 v 93 h -61 v -133 l 192,-81 q 14,-6 29.5,-7.5 15.5,-1.5 30.5,1.5 17,3 29.5,11 12.5,8 20.5,20 l 42,66 q 26,41 67.5,72 41.5,31 69.5,31 v 60 q -40,-2 -94,-33.5 -54,-31.5 -97,-90.5 l -27,98 92,83 v 153 h -60 v -122 l -100,-91 -52,213 z M 498.5,-775.5 Q 477,-797 477,-827 q 0,-30 21.5,-51.5 21.5,-21.5 51.5,-21.5 30,0 51.5,21.5 21.5,21.5 21.5,51.5 0,30 -21.5,51.5 -21.5,21.5 -51.5,21.5 -30,0 -51.5,-21.5 z M 480,-80 q -82,0 -155,-31.5 -73,-31.5 -127.5,-86 Q 143,-252 111.5,-325 80,-398 80,-480 80,-598 141.5,-693 203,-788 302,-838 l 27,54 q -85,42 -137,123 -52,81 -52,181 0,141 99.5,240.5 99.5,99.5 240.5,99.5 142,0 241,-99.5 99,-99.5 99,-240.5 h 60 q 0,82 -31.5,155 -31.5,73 -85.5,127.5 -54,54.5 -127,86 Q 563,-80 480,-80 Z"
         id="path1" /></g><g
       style="fill:#000000"
       id="g2"
       transform="matrix(0.03467406,0,0,0.03472222,69.869626,86.283333)"><path
         d="m 402,-240 v -60 h 59 L 582,-439 461,-580 h -74 l -71,366 q -8,45 -34,69.5 -26,24.5 -67,24.5 -41,0 -68.5,-24 -27.5,-24 -27.5,-60 0,-27 15,-43.5 15,-16.5 39,-16.5 21,0 34.5,12 13.5,12 13.5,32 0,11 -4.5,20.5 -4.5,9.5 -12.5,15.5 4,2 8.5,3 4.5,1 9.5,1 13,0 22,-12.5 9,-12.5 13,-32.5 l 69,-355 H 200 v -60 h 137 l 21,-106 q 9,-45 36,-69.5 27,-24.5 67,-24.5 41,0 67.5,24 26.5,24 26.5,60 0,27 -15,43.5 -15,16.5 -39,16.5 -20,0 -34,-11.5 -14,-11.5 -14,-30.5 0,-10 4,-19.5 4,-9.5 10,-15.5 -2,-2 -6,-3.5 -4,-1.5 -8,-1.5 -13,0 -22.5,12 -9.5,12 -13.5,31 l -18,95 h 189 v 60 h -47 l 83,96 78,-96 h -48 v -60 h 186 v 60 h -58 l -120,141 120,139 h 58 v 60 H 654 v -60 h 48 l -80,-93 -82,93 h 48 v 60 z"
         id="path1-3" /></g><g
       style="fill:#0000ff"
       id="g3"
       transform="matrix(0.0625,0,0,0.0625,193.99589,77.116668)"><path
         d="m 60,-400 q -24,0 -42,-18 -18,-18 -18,-42 v -270 q 0,-10 3,-18 3,-8 11,-17 l 195,-195 25,27.5 q 5,5.5 8,11 3,5.5 3,12.5 v 8 l -31,141 h 216 q 21.25,0 35.63,14.37 Q 480,-731.25 480,-710 v 39 q 0,7 -1,12.5 -1,5.5 -2,7.5 l -93,220 q -6.08,14.64 -19.54,22.82 Q 351,-400 330,-400 Z m 270,-60 90,-209 v -31 H 139 l 28,-133 -107,108 v 265 z M 751,0 726,-27.5 q -5,-5.5 -8,-11 -3,-5.5 -3,-12.5 v -8 l 31,-141 H 530 q -21.25,0 -35.62,-14.38 Q 480,-228.75 480,-250 v -39 q 0,-7 1,-12.5 1,-5.5 2,-7.5 l 93,-220 q 6,-15 19.5,-23 13.5,-8 34.5,-8 h 270 q 24,0 42,18 18,18 18,42 v 270 q 0,10 -3,18 -3,8 -11,17 z m -121,-500 -90,209 v 31 h 281 l -28,133 107,-108 v -265 z m -570,28 v -253 z m 840,-16 v 253 z"
         id="path1-1" /></g><g
       style="fill:#0000ff"
       id="g4"
       transform="matrix(0.08333333,0,0,0.08333333,358.99589,87.116665)"><path
         d="m 345,-120 q -94,0 -159.5,-65.5 Q 120,-251 120,-345 q 0,-45 17,-86 17,-41 49,-73 l 270,-270 q 32,-32 73,-49 41,-17 86,-17 94,0 159.5,65.5 65.5,65.5 65.5,159.5 0,45 -17,86 -17,41 -49,73 l -270,270 q -32,32 -73,49 -41,17 -86,17 z m 273,-265 114,-113 q 23,-23 35.5,-53.5 12.5,-30.5 12.5,-63.5 0,-69 -48,-117 -48,-48 -117,-48 -33,0 -63.5,12.5 Q 521,-755 498,-732 l -113,114 z m -273,205 q 32,0 63,-12.5 31,-12.5 54,-35.5 L 575,-342 342,-575 228,-462 q -23,23 -35.5,53.5 -12.5,30.5 -12.5,63.5 0,69 48,117 48,48 117,48 z"
         id="path1-7" /></g><path
       style="fill:#000000;fill-opacity:1;stroke:#000000;stroke-width:0.555639;stroke-dasharray:none;stroke-opacity:1;marker-end:url(#Triangle)"
       d="m 108.99589,40.53684 c 66.5117,0 66.5117,0 66.5117,0 v 0"
       id="path4" /><path
       style="fill:#000000;fill-opacity:1;stroke:#000000;stroke-width:0.555639;stroke-dasharray:none;stroke-opacity:1;marker-end:url(#Triangle-9)"
       d="m 278.99589,40.53684 c 66.5117,0 66.5117,0 66.5117,0 v 0"
       id="path4-7" /><g
       style="fill:#75fb4c"
       id="g5"
       transform="matrix(0.03840246,0,0,0.05319149,403.08191,95.201775)"><path
         d="m 378,-246 -224,-224 43,-43 181,181 384,-384 43,43 z"
         id="path1-9" /></g></g></svg>
